<?xml version="1.0" encoding="utf-8"?>
<!-- Generator: Adobe Illustrator 19.2.1, SVG Export Plug-In . SVG Version: 6.00 Build 0)  -->
<svg version="1.1" id="Layer_1" xmlns="http://www.w3.org/2000/svg" xmlns:xlink="http://www.w3.org/1999/xlink" x="0px" y="0px"
	 viewBox="0 0 841.9 595.3" style="enable-background:new 0 0 841.9 595.3;" xml:space="preserve">
<style type="text/css">
	.st0{fill:#4D545A;stroke:#000000;stroke-miterlimit:10;}
</style>
<g>
	<path class="st0" d="M108.1,140.5L108.1,140.5c-1.2,0-2.2-1-2.2-2.2v-8.8c0-1.2,1-2.2,2.2-2.2h0c1.2,0,2.2,1,2.2,2.2v8.8
		C110.3,139.5,109.3,140.5,108.1,140.5z"/>
	<path class="st0" d="M116.4,147.4L116.4,147.4c-1.2,0-2.2-1-2.2-2.2v-22.4c0-1.2,1-2.2,2.2-2.2h0c1.2,0,2.2,1,2.2,2.2v22.4
		C118.6,146.4,117.6,147.4,116.4,147.4z"/>
	<path class="st0" d="M124.7,153.9L124.7,153.9c-1.2,0-2.2-1-2.2-2.2v-35.6c0-1.2,1-2.2,2.2-2.2l0,0c1.2,0,2.2,1,2.2,2.2v35.6
		C126.9,152.9,125.9,153.9,124.7,153.9z"/>
	<path class="st0" d="M176.5,135.9h-43.5c-1.1,0-1.9-0.9-1.9-1.9l0,0c0-1.1,0.9-1.9,1.9-1.9h43.5c1.1,0,1.9,0.9,1.9,1.9l0,0
		C178.4,135,177.5,135.9,176.5,135.9z"/>
	<path class="st0" d="M203.6,127.4L203.6,127.4c1.2,0,2.2,0.9,2.2,1.9l0,9.4c0,1-1,1.9-2.2,1.9l0,0c-1.2,0-2.2-0.9-2.2-1.9l0-9.4
		C201.4,128.2,202.4,127.4,203.6,127.4z"/>
	<path class="st0" d="M195.3,120.5L195.3,120.5c1.2,0,2.2,0.9,2.2,1.9l-0.1,23.1c0,1-1,1.9-2.2,1.9l0,0c-1.2,0-2.2-0.9-2.2-1.9
		l0.1-23.1C193.1,121.4,194.1,120.5,195.3,120.5z"/>
	<path class="st0" d="M187,113.9L187,113.9c1.2,0,2.2,0.9,2.2,1.9l-0.2,36.2c0,1-1,1.9-2.2,1.9l0,0c-1.2,0-2.2-0.9-2.2-1.9l0.2-36.2
		C184.8,114.8,185.8,113.9,187,113.9z"/>
</g>
</svg>
